<svg xmlns="http://www.w3.org/2000/svg" viewBox="0 0 1600 1100" role="img" aria-label="Placeholder para foto real de paisagismo corporativo">
  <defs>
    <linearGradient id="g" x1="0" x2="1" y1="0" y2="1">
      <stop stop-color="#082821" offset="0"/>
      <stop stop-color="#23523f" offset=".55"/>
      <stop stop-color="#efece4" offset="1"/>
    </linearGradient>
    <filter id="grain">
      <feTurbulence type="fractalNoise" baseFrequency=".9" numOctaves="4"/>
      <feColorMatrix type="saturate" values="0"/>
      <feComponentTransfer>
        <feFuncA type="table" tableValues="0 .12"/>
      </feComponentTransfer>
    </filter>
  </defs>
  <rect width="1600" height="1100" fill="url(#g)"/>
  <path d="M0 780c250-170 500-198 760-84 246 108 552 75 840-125v529H0Z" fill="#0f3329" opacity=".85"/>
  <path d="M1020 0h580v1100h-270c-18-190-103-336-254-438-118-80-166-209-144-386 10-82 40-174 88-276Z" fill="#d9d2c7" opacity=".22"/>
  <path d="M170 930c92-306 232-472 420-498 164-23 297 64 402 261 48 91 115 146 201 166 84 20 171 5 260-46" fill="none" stroke="#efece4" stroke-width="2" opacity=".36"/>
  <text x="88" y="1030" fill="#efece4" opacity=".42" font-family="Helvetica, Arial, sans-serif" font-size="24">SUBSTITUIR POR FOTO REAL - HERO CORPORATIVO</text>
  <rect width="1600" height="1100" filter="url(#grain)" opacity=".5"/>
</svg>
